<svg width="25" height="24" fill="none" xmlns="http://www.w3.org/2000/svg"><g clip-path="url(#a)" fill="#737373"><path d="M8.24 23.188c.876 0 1.586-.716 1.586-1.6 0-.883-.71-1.6-1.587-1.6-.876 0-1.586.717-1.586 1.6 0 .884.71 1.6 1.586 1.6ZM19.344 23.188c.876 0 1.587-.716 1.587-1.6 0-.883-.71-1.6-1.587-1.6-.876 0-1.586.717-1.586 1.6 0 .884.71 1.6 1.586 1.6ZM22.517 4.788H4.924l-.65-3.36a.801.801 0 0 0-.282-.465.789.789 0 0 0-.512-.175H.307v1.6H2.83l3.03 15.36a.79.79 0 0 0 .793.64h14.278v-1.6H7.303l-.65-3.2h14.278a.788.788 0 0 0 .507-.169.801.801 0 0 0 .286-.455l1.586-7.2a.806.806 0 0 0-.443-.903.787.787 0 0 0-.35-.073Zm-2.221 7.2H6.352l-1.11-5.6h16.284l-1.23 5.6Z"/></g><defs><clipPath id="a"><path fill="#fff" transform="translate(.307 .788)" d="M0 0h23.796v22.4H0z"/></clipPath></defs></svg>