<svg width="48" height="45" fill="none" xmlns="http://www.w3.org/2000/svg"><g clip-path="url(#a)" fill="#00A0C1"><path d="M23.84 20.802c4.305 0 7.652-3.495 7.652-7.785s-3.507-7.626-7.81-7.626c-4.305 0-7.653 3.495-7.653 7.626 0 4.29 3.507 7.785 7.812 7.785ZM23.682 8.57c.16 0 .16 0 0 0 2.55 0 4.623 2.065 4.623 4.607 0 2.542-2.072 4.449-4.623 4.449a4.448 4.448 0 0 1-4.463-4.449c0-2.542 2.072-4.607 4.463-4.607ZM47.434 19.849c-3.029-2.701-7.014-4.131-11.16-3.972H35c-.318 1.27-.797 2.383-1.434 3.336.956-.159 1.753-.159 2.71-.159 3.029-.159 6.058.795 8.449 2.542v11.44h3.188v-12.71l-.478-.477ZM32.608 5.708c.798-1.906 3.03-2.86 5.102-2.065 1.913.794 2.87 3.018 2.072 5.084-.638 1.43-2.072 2.383-3.507 2.383-.319 0-.797 0-1.116-.159.16.795.16 1.589.16 2.224v.954c.318 0 .637.159.956.159 3.985 0 7.174-3.178 7.174-6.991 0-3.972-3.189-7.15-7.015-7.15-2.55 0-4.782 1.271-6.057 3.496.797.476 1.594 1.112 2.231 2.065ZM14.435 19.372c-.638-.953-1.116-2.065-1.434-3.336h-1.276A16.438 16.438 0 0 0 .566 19.849l-.478.477v12.71h3.188v-11.44c2.55-1.747 5.42-2.7 8.45-2.542.956 0 1.912.16 2.71.318ZM11.725 14.13c.319 0 .638 0 .957-.16v-.953c0-.794 0-1.589.159-2.224-.319.159-.797.159-1.116.159-2.072 0-3.826-1.748-3.826-3.813 0-2.066 1.754-3.813 3.826-3.813 1.594 0 3.029.953 3.667 2.383.637-.795 1.594-1.59 2.39-2.225C15.71.148 11.407-.964 8.06 1.101 4.71 3.167 3.595 7.456 5.667 10.793c1.276 2.065 3.507 3.336 6.058 3.336ZM36.913 29.382l-.32-.477c-3.188-3.495-7.651-5.56-12.434-5.402-4.782-.159-9.405 1.907-12.593 5.402l-.32.477v12.074c0 1.43 1.117 2.701 2.71 2.701h20.406c1.435 0 2.71-1.27 2.71-2.7V29.381h-.16ZM33.724 40.98H14.435V30.494c2.55-2.542 6.058-3.813 9.724-3.813 3.508-.16 7.015 1.27 9.565 3.813V40.98Z"/></g><defs><clipPath id="a"><path fill="#fff" d="M0 0h48v44.211H0z"/></clipPath></defs></svg>