<svg width="48" height="38" fill="none" xmlns="http://www.w3.org/2000/svg"><g clip-path="url(#a)" fill="#00A0C1"><path d="M29.642 8.624H41.64v3.445H29.642V8.624ZM29.642 17.238H41.64v3.445H29.642v-3.445ZM29.642 25.85H41.64v3.446H29.642v-3.445Z"/><path d="M45.068.011H3.932c-.909.001-1.78.364-2.423 1.01A3.458 3.458 0 0 0 .504 3.456v31.008c.001.914.363 1.79 1.005 2.436a3.423 3.423 0 0 0 2.423 1.01h41.136a3.425 3.425 0 0 0 2.422-1.011 3.459 3.459 0 0 0 1.006-2.435V3.456c-.001-.913-.363-1.789-1.005-2.435a3.423 3.423 0 0 0-2.423-1.01ZM3.932 3.456h18.854v31.008H3.932V3.456Zm22.282 31.008V3.456h18.854l.003 31.008H26.214Z"/></g><defs><clipPath id="a"><path fill="#fff" transform="translate(.5)" d="M0 0h48v37.92H0z"/></clipPath></defs></svg>