<svg width="30" height="30" fill="none" xmlns="http://www.w3.org/2000/svg"><path fill-rule="evenodd" clip-rule="evenodd" d="M17.237 7.772a4.25 4.25 0 1 1-4.72-7.068 4.25 4.25 0 0 1 4.722 7.068h-.002Zm-1.18-5.3a2.125 2.125 0 1 0-2.363 3.53 2.125 2.125 0 0 0 2.363-3.528v-.002Zm5.547.064a3.175 3.175 0 0 1 4.026.399 3.215 3.215 0 0 1-1.034 5.228 3.17 3.17 0 0 1-3.475-.693 3.213 3.213 0 0 1 .485-4.932l-.002-.002Zm1.02 3.42a1.061 1.061 0 1 0 1.498-1.504 1.082 1.082 0 0 0-.746-.318 1.06 1.06 0 0 0-1.063 1.068c.001.283.112.555.31.757v-.002ZM4.654 24.399h3.847v2.135H4.655a2.543 2.543 0 0 1-1.79-.759 2.571 2.571 0 0 1-.74-1.806v-3.846a2.118 2.118 0 0 1-1.508-.706 2.139 2.139 0 0 1-.616-1.561v-4.637a3.843 3.843 0 0 1 1.105-2.673A3.75 3.75 0 0 1 3.74 9.433h3.91a6.188 6.188 0 0 0-1.169 2.138H3.741a1.696 1.696 0 0 0-1.148.493c-.3.309-.468.723-.467 1.154v4.743H4.25v6.005a.43.43 0 0 0 .106.321.51.51 0 0 0 .298.106v.005Zm15.513-13.851a3.75 3.75 0 0 0-2.656-1.112h-5.27a3.75 3.75 0 0 0-2.635 1.112A3.843 3.843 0 0 0 8.5 13.22v6.753c-.003.58.218 1.139.616 1.56a2.123 2.123 0 0 0 1.509.705v4.937a2.555 2.555 0 0 0 .744 1.817 2.56 2.56 0 0 0 1.38.663H17a2.444 2.444 0 0 0 2.126-2.48v-4.939a2.118 2.118 0 0 0 1.509-.705 2.139 2.139 0 0 0 .616-1.56v-6.753a3.825 3.825 0 0 0-1.084-2.673v.002Zm-1.041 9.53H17v7.098a.43.43 0 0 1-.128.297.361.361 0 0 1-.297.128h-3.421a.446.446 0 0 1-.425-.425v-7.098h-2.104v-6.86c0-.43.168-.845.467-1.153.306-.304.716-.48 1.148-.493h5.27a1.653 1.653 0 0 1 1.498 1.02c.08.199.12.412.117.627v6.86Zm5.971 6.454h-3.846v-2.136h3.825a.51.51 0 0 0 .297-.106.424.424 0 0 0 .128-.323v-6.005h2.125v-4.743c0-.431-.167-.845-.468-1.154a1.696 1.696 0 0 0-1.147-.493H23.27a6.185 6.185 0 0 0-1.17-2.138h3.91c.991.01 1.938.409 2.636 1.112a3.844 3.844 0 0 1 1.105 2.673v4.637c0 .58-.22 1.136-.614 1.557a2.236 2.236 0 0 1-1.511.708v3.846a2.57 2.57 0 0 1-.74 1.806 2.544 2.544 0 0 1-1.789.759ZM6.376 1.996a3.175 3.175 0 0 0-2.945 1.98 3.224 3.224 0 0 0 .692 3.492 3.181 3.181 0 0 0 5.44-2.266 3.212 3.212 0 0 0-1.967-2.961 3.179 3.179 0 0 0-1.22-.245Zm0 4.275a1.06 1.06 0 0 1-1.063-1.069 1.071 1.071 0 0 1 1.063-1.068 1.082 1.082 0 0 1 1.062 1.068 1.071 1.071 0 0 1-1.062 1.07Z" fill="#FFA62B"/></svg>