<svg width="23" height="24" fill="none" xmlns="http://www.w3.org/2000/svg"><path d="M17.848 12.977a1.2 1.2 0 0 0-1.697 0l-1.912 1.912c-.887-.263-2.542-.864-3.59-1.912-1.05-1.05-1.65-2.704-1.913-3.59l1.912-1.913a1.2 1.2 0 0 0 0-1.697l-4.8-4.8a1.199 1.199 0 0 0-1.696 0L.897 4.23a2.398 2.398 0 0 0-.703 1.722c.028 1.709.48 7.644 5.158 12.322 4.677 4.677 10.612 5.128 12.322 5.157h.034c.633 0 1.232-.25 1.686-.703l3.254-3.254a1.2 1.2 0 0 0 0-1.697l-4.8-4.801Zm-.152 8.054c-1.498-.025-6.622-.427-10.648-4.454-4.039-4.04-4.43-9.181-4.454-10.649L5 3.522l3.103 3.103-1.551 1.552a1.2 1.2 0 0 0-.327 1.094c.029.138.733 3.41 2.725 5.402 1.992 1.993 5.265 2.697 5.403 2.726a1.19 1.19 0 0 0 1.094-.326L17 15.522l3.103 3.103-2.407 2.406Z" fill="#8EC2F2"/></svg>