<svg width="25" height="24" fill="none" xmlns="http://www.w3.org/2000/svg"><path d="M12.502 5.848A6.144 6.144 0 0 0 6.349 12a6.144 6.144 0 0 0 6.153 6.153A6.144 6.144 0 0 0 18.655 12a6.144 6.144 0 0 0-6.153-6.153Zm0 10.152a4.007 4.007 0 0 1-4-4 4.007 4.007 0 0 1 4-3.998A4.007 4.007 0 0 1 16.5 12a4.007 4.007 0 0 1-4 3.999Zm6.405-11.838c-.795 0-1.437.642-1.437 1.437s.642 1.437 1.437 1.437a1.433 1.433 0 0 0 1.328-1.988 1.434 1.434 0 0 0-1.328-.886ZM24.496 12c0-1.656.015-3.297-.078-4.95-.093-1.92-.531-3.624-1.935-5.028C21.076.616 19.375.18 17.455.088 15.799-.005 14.158.01 12.505.01c-1.656 0-3.297-.015-4.95.078-1.92.093-3.624.53-5.028 1.935C1.12 3.43.685 5.13.592 7.05.499 8.707.514 10.348.514 12s-.015 3.297.078 4.95c.093 1.92.53 3.624 1.935 5.028 1.407 1.407 3.108 1.842 5.028 1.935 1.656.093 3.297.078 4.95.078 1.656 0 3.297.015 4.95-.078 1.92-.093 3.624-.531 5.028-1.935 1.407-1.407 1.842-3.108 1.935-5.028.096-1.653.078-3.294.078-4.95Zm-2.64 7.074a3.812 3.812 0 0 1-.906 1.374 3.838 3.838 0 0 1-1.374.906c-1.578.627-5.325.486-7.074.486-1.75 0-5.5.14-7.077-.483a3.812 3.812 0 0 1-1.374-.906 3.838 3.838 0 0 1-.906-1.374C2.52 17.497 2.662 13.75 2.662 12c0-1.75-.141-5.5.483-7.077.219-.546.483-.954.906-1.374.423-.42.828-.687 1.374-.906 1.578-.624 5.328-.483 7.077-.483 1.749 0 5.499-.141 7.077.483.546.219.954.483 1.374.906.423.423.687.828.906 1.374.624 1.578.483 5.328.483 7.077 0 1.749.14 5.496-.486 7.074Z" fill="#E61F5A"/></svg>