<svg width="149" height="50" fill="none" xmlns="http://www.w3.org/2000/svg"><path d="m33.642 46.948 8.917.188a61.73 61.73 0 0 1-8.917-3.944v3.756Zm13.433-1.244v1.244l-4.516.188c8.497 2.934 16.273 3.333 22.047 1.69-4.633.047-10.663-.61-17.53-3.122Zm95.197-27.042c3.702 0 6.729-3.028 6.729-6.784s-3.004-5.751-6.729-5.751c-3.701 0-6.728 2.018-6.728 5.75 0 3.733 3.003 6.785 6.728 6.785Zm-6.751 28.286h13.48V21.01h-13.48v25.94Zm-17.159 0h13.48V1.103l-13.48 6.409v39.436Zm-7.217-28.028c-4.237-4.272-11.733-4.014-11.733-4.014s-7.52-.258-11.734 4.014c-4.237 4.272-3.912 7.958-3.912 12.347 0 4.39-.326 8.052 3.912 12.324 4.237 4.273 11.734 4.014 11.734 4.014s7.519.259 11.733-4.014c4.237-4.272 3.911-7.934 3.911-12.324-.023-4.413.303-8.098-3.911-12.347Zm-9.266 16.878c0 .845-.419 2.934-2.49 2.934-2.073 0-2.492-2.089-2.492-2.934v-9.484c0-2.042 1.7-2.558 2.491-2.558.792 0 2.491.493 2.491 2.558v9.484ZM77.155 18.92c-4.238-4.272-11.734-4.014-11.734-4.014s-7.497-.258-11.734 4.014c-.442.446-.861.915-1.234 1.408C43.56 13.38 35.574 9.413 28.683 5.986v-4.86l-5.238 2.489C10.78-1.573 2.725-.658.792 3.638c0 0-5.797 7.7 14.388 26.01v17.3h13.48v-6.714a69.062 69.062 0 0 1-4.517-3.192c-3.445-2.63-6.379-5.07-8.94-7.37v-7.278c3.05 3.45 7.101 7.371 12.432 11.808l1.048.845V28.05c0-1.62.396-4.272 2.514-4.272 2.119 0 2.468 1.62 2.468 3.521v11.432A61.886 61.886 0 0 0 47.1 45.681V23.638c0-4.39-3.12-8.78-9.453-8.78A10.28 10.28 0 0 0 28.683 20V7.253C38.438 12.16 48.216 18.17 51.941 20.94c-2.375 3.427-2.165 6.596-2.165 10.258 0 4.39-.326 8.052 3.911 12.324s11.734 4.014 11.734 4.014 7.52.258 11.734-4.014c4.237-4.272 3.888-7.934 3.888-12.324 0-4.343.349-8.028-3.888-12.277ZM15.18 7.512V22.37C3.842 9.577 6.124 4.53 6.985 3.803c3.143-2.676 8.73-1.878 14.993.493L15.18 7.512Zm52.732 28.286c0 .845-.42 2.934-2.491 2.934-2.072 0-2.491-2.089-2.491-2.934v-9.484c0-2.042 1.7-2.558 2.49-2.558.792 0 2.492.493 2.492 2.558v9.484Z" fill="#737373"/></svg>