<svg width="151" height="92" fill="none" xmlns="http://www.w3.org/2000/svg"><path d="M42.233 33.37c-.171 5.399 2.526 7.79 2.593 9.307a1.946 1.946 0 0 1-.977 1.495l-3.05 2.135c-.395.277-.86.436-1.342.458-.103-.005-1.952.436-4.881-6.104a18.734 18.734 0 0 1-14.921 7.02c-3.88.211-14.395-2.203-13.854-13.398-.378-9.124 8.117-14.792 16.904-14.312 1.692.004 5.148.088 11.199 1.494v-3.723c.64-6.307-3.503-11.2-10.68-10.466-.571.003-4.622-.119-10.924 2.41-1.754.806-1.978.672-2.562.672-1.765 0-1.039-5.12-.7-5.768C10.279 3.065 17.584.217 24.752.257a18.315 18.315 0 0 1 13.272 4.119 16.753 16.753 0 0 1 4.211 12.48l-.002 16.514Zm-20.595 7.72c7.728-.112 11-4.76 11.746-7.262.587-2.396.489-3.911.489-6.53-2.305-.554-5.622-1.157-9.428-1.161-3.61-.272-10.205 1.341-9.947 7.688-.296 4.002 2.65 7.484 7.14 7.265Zm40.733 5.494c-1.873.171-2.745-1.159-3.022-2.472L47.481 4.87a9.104 9.104 0 0 1-.458-2.045 1.1 1.1 0 0 1 .92-1.251c.057-.01-.508 0 5.303 0 2.092-.21 2.774 1.437 2.99 2.472L64.75 37.61l7.903-33.565c.126-.768.7-2.639 3.05-2.441h4.09c.517-.043 2.648-.12 3.022 2.472l7.964 33.994 8.787-33.994c.115-.52.648-2.71 3.022-2.472h4.7c.202-.031 1.465-.193 1.251 2.045-.103.44.812-2.54-12.571 40.494-.275 1.313-1.15 2.643-3.022 2.472H88.49c-2.608.274-2.982-2.303-3.022-2.562l-7.903-32.684-7.812 32.65c-.038.26-.412 2.837-3.022 2.562h-4.361v.003Zm65.175 1.342c-1.401.002-8.084-.072-13.67-2.93a3.052 3.052 0 0 1-1.861-2.839v-2.561c0-2.014 1.477-1.645 2.104-1.404 2.393.968 3.928 1.702 6.866 2.288 8.734 1.795 12.576-.548 13.518-1.068 3.133-1.861 3.381-6.12 1.251-8.33-2.498-2.095-3.689-2.174-12.662-5.005-1.106-.308-10.415-3.244-10.436-12.48-.145-6.73 5.97-13.39 16.568-13.335 3.019-.002 11.065.984 13.243 3.723.322.498.482 1.084.458 1.678v2.41c0 1.058-.386 1.587-1.161 1.587-1.837-.205-5.098-2.662-11.716-2.562-1.642-.086-9.506.217-9.153 5.951-.103 4.52 6.341 6.214 7.078 6.41 8.689 2.614 11.594 3.047 15.042 7.05 4.085 5.302 1.883 11.511 1.037 13.213-4.547 8.935-16.306 8.209-16.506 8.204Zm9.58 24.992C120.437 85.245 96.21 91.807 75.524 91.807A111.794 111.794 0 0 1-.087 63.032c-1.557-1.404-.184-3.327 1.708-2.257A151.883 151.883 0 0 0 77.14 80.824a150.182 150.182 0 0 0 57.575-11.81c2.807-1.191 5.188 1.86 2.411 3.904Zm6.957-7.934c-2.135-2.746-14.128-1.282-19.497-.641-1.618.183-1.892-1.22-.426-2.257 9.549-6.715 25.233-4.791 27.034-2.534 1.8 2.257-.488 17.973-9.428 25.481-1.372 1.16-2.685.548-2.075-.977 2.011-5.065 6.527-16.324 4.392-19.072Z" fill="#737373"/></svg>