<svg width="139" height="99" fill="none" xmlns="http://www.w3.org/2000/svg"><path d="M0 1.67h21.122v57.076c0 9.052 4.072 14.44 7.384 16.682-3.448 3.035-13.9 5.716-21.773-.766C2.118 70.833 0 64.462 0 58.527V1.67Zm131.914 47.45v-6.017h6.462V22.098h-7.086C128.548 9.437 117.39.03 104.06.03c-15.366 0-27.882 12.58-27.882 28.087v49.008c4.344.629 9.611-.082 14.036-3.83 4.643-3.828 6.733-10.173 6.733-16.135v-1.832h10.534V34.324H96.947v-6.372c0-9.463 14.172-9.463 14.172 0v21.085c0 15.479 12.488 28.087 27.881 28.087V56.202c-3.937 0-7.086-3.2-7.086-7.083ZM52.016 22.044v30.903c0 4.211-6.46 4.211-6.46 0V22.044h-20.85v36.291c0 6.51 2.171 14.768 12.216 17.476 10.045 2.68 15.8-2.9 15.8-2.9-.57 3.665-3.936 6.373-9.474 6.92-4.209.438-9.557-.985-12.217-2.133v19.226c6.814 2.05 13.981 2.68 21.067 1.285 12.787-2.489 20.85-13.237 20.85-27.567V21.908H52.016v.136Z" fill="#737373"/></svg>