<svg width="70" height="71" fill="none" xmlns="http://www.w3.org/2000/svg"><path d="M68.348 1.162a2.853 2.853 0 0 0-1.417-.804 2.78 2.78 0 0 0-1.611.114L1.862 24.47c-.548.215-1.019.6-1.351 1.1C.178 26.072 0 26.667 0 27.275c0 .61.178 1.204.51 1.704.333.501.804.885 1.352 1.101l27.69 11.52L40.63 70.398a2.983 2.983 0 0 0 1.026 1.35 2.811 2.811 0 0 0 1.57.54 2.811 2.811 0 0 0 1.622-.562 2.991 2.991 0 0 0 1.032-1.418L68.954 4.312c.197-.531.244-1.11.137-1.667a3.043 3.043 0 0 0-.743-1.483ZM43.225 60.889l-8.048-21L48.994 25.52l-4.067-4.23-13.932 14.49-20.076-8.49L61.483 8.301 43.225 60.89Z" fill="#00A0C1"/></svg>