<svg width="70" height="71" viewBox="0 0 70 71" fill="none" xmlns="http://www.w3.org/2000/svg">
<path d="M68.3484 1.16174C67.9592 0.758784 67.4674 0.47979 66.9308 0.357565C66.3943 0.23534 65.8354 0.274964 65.3198 0.47178L1.8615 24.4705C1.31422 24.6864 0.84305 25.0704 0.51056 25.5714C0.178071 26.0723 0 26.6667 0 27.2754C0 27.8841 0.178071 28.4785 0.51056 28.9794C0.84305 29.4804 1.31422 29.8644 1.8615 30.0803L29.5524 41.5997L40.6287 70.3982C40.8368 70.9423 41.1935 71.4113 41.6549 71.7471C42.1162 72.0829 42.6619 72.271 43.2248 72.2881C43.8077 72.2757 44.3733 72.0798 44.847 71.7264C45.3207 71.3729 45.6804 70.8785 45.8785 70.3082L68.9542 4.31158C69.1507 3.78084 69.1981 3.20293 69.0909 2.64524C68.9836 2.08755 68.7261 1.57305 68.3484 1.16174ZM43.2248 60.8887L35.1771 39.8898L48.9937 25.5205L44.9266 21.2907L30.9946 35.78L10.9187 27.2904L61.4834 8.30138L43.2248 60.8887Z" fill="#00A0C1"/>
</svg>
