<svg width="25" height="20" fill="none" xmlns="http://www.w3.org/2000/svg"><path d="M24.5 2.465a9.739 9.739 0 0 1-2.829.772A4.96 4.96 0 0 0 23.832.489a9.613 9.613 0 0 1-3.117 1.204A4.902 4.902 0 0 0 19.08.526a4.84 4.84 0 0 0-1.956-.409c-2.723 0-4.913 2.24-4.913 4.988 0 .386.046.772.121 1.143A13.896 13.896 0 0 1 2.203 1.03a5.007 5.007 0 0 0-.668 2.518c0 1.73.867 3.257 2.19 4.154a4.9 4.9 0 0 1-2.222-.634v.061c0 2.424 1.688 4.433 3.939 4.895a5.133 5.133 0 0 1-1.294.17 6.45 6.45 0 0 1-.928-.077 4.931 4.931 0 0 0 4.593 3.46 9.756 9.756 0 0 1-6.1 2.13c-.412 0-.792-.014-1.187-.06a13.765 13.765 0 0 0 7.546 2.236c9.035 0 13.98-7.596 13.98-14.19 0-.216 0-.432-.015-.648.957-.71 1.795-1.59 2.463-2.579Z" fill="#21A6DF"/></svg>