<svg width="25" height="18" fill="none" xmlns="http://www.w3.org/2000/svg"><path d="M23.97 2.932a3.192 3.192 0 0 0-.775-1.41 2.966 2.966 0 0 0-1.34-.814C19.988.177 12.488.177 12.488.177s-7.5 0-9.367.531a2.966 2.966 0 0 0-1.34.815c-.372.39-.639.876-.775 1.409A34.16 34.16 0 0 0 .5 9a34.16 34.16 0 0 0 .505 6.068c.136.533.403 1.02.775 1.41.37.39.833.67 1.34.814 1.866.531 9.367.531 9.367.531s7.5 0 9.367-.53a2.965 2.965 0 0 0 1.34-.816c.371-.39.639-.876.775-1.409.348-2.001.518-4.033.505-6.068a34.162 34.162 0 0 0-.505-6.068Zm-13.88 9.85V5.218L16.315 9l-6.225 3.781Z" fill="#E42F08"/></svg>